<svg width="24" height="24" viewBox="0 0 24 24" fill="none" xmlns="http://www.w3.org/2000/svg">
<path d="M0 12C0 5.37258 5.37258 0 12 0C18.6274 0 24 5.37258 24 12C24 18.6274 18.6274 24 12 24C5.37258 24 0 18.6274 0 12Z" fill="#1157FF"/>
<path d="M9.49029 8.25C9.83666 8.25 10.1564 8.27664 10.4495 8.35657C10.7425 8.40986 10.9823 8.51643 11.1955 8.64965C11.4086 8.78287 11.5685 8.96937 11.6751 9.20916C11.7816 9.44895 11.8349 9.74203 11.8349 10.0618C11.8349 10.4348 11.755 10.7545 11.5685 10.9943C11.4086 11.2341 11.1422 11.4472 10.8225 11.6071C11.2754 11.7403 11.6218 11.9801 11.8349 12.2998C12.0481 12.6195 12.1813 13.0192 12.1813 13.4721C12.1813 13.8451 12.1013 14.1648 11.9681 14.4313C11.8349 14.6977 11.6218 14.9375 11.382 15.0974C11.1422 15.2572 10.8491 15.3904 10.5294 15.4704C10.2097 15.5503 9.88994 15.6036 9.57022 15.6036H6V8.25H9.49029ZM9.27714 11.2341C9.57022 11.2341 9.81001 11.1541 9.99652 11.0209C10.183 10.8877 10.263 10.6479 10.263 10.3548C10.263 10.195 10.2363 10.0351 10.183 9.92854C10.1297 9.82196 10.0498 9.74203 9.94323 9.6621C9.83666 9.60882 9.73008 9.55553 9.59686 9.52889C9.46365 9.50224 9.33043 9.50224 9.17057 9.50224H7.62525V11.2341H9.27714ZM9.35707 14.378C9.51693 14.378 9.67679 14.3513 9.81001 14.3247C9.94323 14.2981 10.0764 14.2448 10.183 14.1648C10.2896 14.0849 10.3695 14.005 10.4495 13.8718C10.5027 13.7385 10.556 13.5787 10.556 13.3922C10.556 13.0192 10.4495 12.7527 10.2363 12.5662C10.0232 12.4064 9.73008 12.3264 9.38372 12.3264H7.62525V14.378H9.35707ZM14.4993 14.3513C14.7124 14.5645 15.0321 14.6711 15.4584 14.6711C15.7515 14.6711 16.0179 14.5911 16.2311 14.4579C16.4442 14.2981 16.5774 14.1382 16.6307 13.9783H17.9363C17.7231 14.6178 17.4034 15.0707 16.9771 15.3638C16.5508 15.6302 16.0446 15.7901 15.4318 15.7901C15.0055 15.7901 14.6325 15.7102 14.2861 15.5769C13.9397 15.4437 13.6733 15.2572 13.4335 14.9908C13.1937 14.751 13.0072 14.4579 12.9007 14.1116C12.7674 13.7652 12.7141 13.3922 12.7141 12.9659C12.7141 12.5662 12.7674 12.1932 12.9007 11.8469C13.0339 11.5005 13.2204 11.2074 13.4602 10.941C13.7 10.7012 13.993 10.488 14.3128 10.3548C14.6591 10.2216 15.0055 10.1417 15.4318 10.1417C15.8847 10.1417 16.2844 10.2216 16.6307 10.4081C16.9771 10.5946 17.2435 10.8078 17.4567 11.1275C17.6698 11.4206 17.8297 11.7669 17.9363 12.1399C17.9895 12.513 18.0162 12.886 17.9895 13.3123H14.1262C14.1262 13.7385 14.2861 14.1382 14.4993 14.3513ZM16.1778 11.5538C15.9913 11.3673 15.6982 11.2607 15.3518 11.2607C15.1121 11.2607 14.9256 11.314 14.7657 11.3939C14.6058 11.4739 14.4993 11.5804 14.3927 11.687C14.2861 11.7936 14.2328 11.9268 14.2062 12.06C14.1795 12.1932 14.1529 12.2998 14.1529 12.4064H16.5508C16.4975 12.0067 16.3643 11.7403 16.1778 11.5538ZM13.8332 8.75623H16.8172V9.4756H13.8332V8.75623Z" fill="white"/>
</svg>
