<svg width="24" height="24" viewBox="0 0 24 24" fill="none" xmlns="http://www.w3.org/2000/svg">
<path d="M0 12C0 18.6274 5.37258 24 12 24C18.6274 24 24 18.6274 24 12C24 5.37258 18.6274 0 12 0C5.37258 0 0 5.37258 0 12Z" fill="#F00073"/>
<path d="M12.0002 6.90015C13.6502 6.90015 13.8752 6.90015 14.5502 6.90015C15.1502 6.90015 15.4502 7.05015 15.6752 7.12515C15.9752 7.27515 16.2002 7.35015 16.4252 7.57515C16.6502 7.80015 16.8002 8.02515 16.8752 8.32515C16.9502 8.55015 17.0252 8.85015 17.1002 9.45015C17.1002 10.1251 17.1002 10.2751 17.1002 12.0001C17.1002 13.7251 17.1002 13.8751 17.1002 14.5501C17.1002 15.1501 16.9502 15.4501 16.8752 15.6751C16.7252 15.9751 16.6502 16.2001 16.4252 16.4251C16.2002 16.6501 15.9752 16.8001 15.6752 16.8751C15.4502 16.9501 15.1502 17.0251 14.5502 17.1001C13.8752 17.1001 13.7252 17.1001 12.0002 17.1001C10.2752 17.1001 10.1252 17.1001 9.45021 17.1001C8.85021 17.1001 8.55021 16.9501 8.32521 16.8751C8.02521 16.7251 7.80021 16.6501 7.57521 16.4251C7.35021 16.2001 7.20021 15.9751 7.12521 15.6751C7.05021 15.4501 6.97521 15.1501 6.90021 14.5501C6.90021 13.8751 6.90021 13.7251 6.90021 12.0001C6.90021 10.2751 6.90021 10.1251 6.90021 9.45015C6.90021 8.85015 7.05021 8.55015 7.12521 8.32515C7.27521 8.02515 7.35021 7.80015 7.57521 7.57515C7.80021 7.35015 8.02521 7.20015 8.32521 7.12515C8.55021 7.05015 8.85021 6.97515 9.45021 6.90015C10.1252 6.90015 10.3502 6.90015 12.0002 6.90015ZM12.0002 5.77515C10.2752 5.77515 10.1252 5.77515 9.45021 5.77515C8.77521 5.77515 8.32521 5.92515 7.95021 6.07515C7.57521 6.22515 7.20021 6.45015 6.82521 6.82515C6.45021 7.20015 6.30021 7.50015 6.07521 7.95015C5.92521 8.32515 5.85021 8.77515 5.77521 9.45015C5.77521 10.1251 5.77521 10.3501 5.77521 12.0001C5.77521 13.7251 5.77521 13.8751 5.77521 14.5501C5.77521 15.2251 5.92521 15.6751 6.07521 16.0501C6.22521 16.4251 6.45021 16.8001 6.82521 17.1751C7.20021 17.5501 7.50021 17.7001 7.95021 17.9251C8.32521 18.0751 8.77521 18.1501 9.45021 18.2251C10.1252 18.2251 10.3502 18.2251 12.0002 18.2251C13.6502 18.2251 13.8752 18.2251 14.5502 18.2251C15.2252 18.2251 15.6752 18.0751 16.0502 17.9251C16.4252 17.7751 16.8002 17.5501 17.1752 17.1751C17.5502 16.8001 17.7002 16.5001 17.9252 16.0501C18.0752 15.6751 18.1502 15.2251 18.2252 14.5501C18.2252 13.8751 18.2252 13.6501 18.2252 12.0001C18.2252 10.3501 18.2252 10.1251 18.2252 9.45015C18.2252 8.77515 18.0752 8.32515 17.9252 7.95015C17.7752 7.57515 17.5502 7.20015 17.1752 6.82515C16.8002 6.45015 16.5002 6.30015 16.0502 6.07515C15.6752 5.92515 15.2252 5.85015 14.5502 5.77515C13.8752 5.77515 13.7252 5.77515 12.0002 5.77515Z" fill="white"/>
<path d="M12.0002 8.77515C10.2002 8.77515 8.77521 10.2001 8.77521 12.0001C8.77521 13.8001 10.2002 15.2251 12.0002 15.2251C13.8002 15.2251 15.2252 13.8001 15.2252 12.0001C15.2252 10.2001 13.8002 8.77515 12.0002 8.77515ZM12.0002 14.1001C10.8752 14.1001 9.90021 13.2001 9.90021 12.0001C9.90021 10.8751 10.8002 9.90015 12.0002 9.90015C13.1252 9.90015 14.1002 10.8001 14.1002 12.0001C14.1002 13.1251 13.1252 14.1001 12.0002 14.1001Z" fill="white"/>
<path d="M15.3002 9.45015C15.7144 9.45015 16.0502 9.11436 16.0502 8.70015C16.0502 8.28593 15.7144 7.95015 15.3002 7.95015C14.886 7.95015 14.5502 8.28593 14.5502 8.70015C14.5502 9.11436 14.886 9.45015 15.3002 9.45015Z" fill="white"/>
</svg>
