<svg width="24" height="24" viewBox="0 0 24 24" fill="none" xmlns="http://www.w3.org/2000/svg">
<path d="M0 12C0 18.6274 5.37258 24 12 24C18.6274 24 24 18.6274 24 12C24 5.37258 18.6274 0 12 0C5.37258 0 0 5.37258 0 12Z" fill="#FF0000"/>
<path d="M17.7 9.07493C17.55 8.54993 17.175 8.17493 16.65 8.02493C15.75 7.79993 11.925 7.79993 11.925 7.79993C11.925 7.79993 8.175 7.79993 7.2 8.02493C6.675 8.17493 6.3 8.54993 6.15 9.07493C6 10.0499 6 11.9999 6 11.9999C6 11.9999 6 13.9499 6.225 14.9249C6.375 15.4499 6.75 15.8249 7.275 15.9749C8.175 16.1999 12 16.1999 12 16.1999C12 16.1999 15.75 16.1999 16.725 15.9749C17.25 15.8249 17.625 15.4499 17.775 14.9249C18 13.9499 18 11.9999 18 11.9999C18 11.9999 18 10.0499 17.7 9.07493ZM10.8 13.7999V10.1999L13.95 11.9999L10.8 13.7999Z" fill="white"/>
</svg>
